<svg width="16" height="12" viewBox="0 0 16 12" fill="none" xmlns="http://www.w3.org/2000/svg">
<path d="M15.3194 1.79244C14.8412 0.968066 13.5794 0.782441 11.6631 1.25119C10.776 0.565217 9.7142 0.141801 8.59845 0.0290446C7.48271 -0.0837122 6.3577 0.11871 5.35124 0.613316C4.34478 1.10792 3.4972 1.87488 2.9048 2.82708C2.31241 3.77927 1.99893 4.87851 1.99999 5.99994C2.00007 6.25717 2.01635 6.51414 2.04874 6.76932C0.318112 8.56244 0.343112 9.62494 0.681237 10.2074C0.999987 10.7599 1.66499 10.9999 2.53999 10.9999C3.1475 10.9874 3.75143 10.9035 4.33936 10.7499C5.22662 11.4352 6.28825 11.8581 7.40371 11.9704C8.51917 12.0827 9.64378 11.88 10.6498 11.3853C11.6559 10.8907 12.5031 10.1238 13.0953 9.17189C13.6875 8.21995 14.0009 7.12104 14 5.99994C14.0001 5.74397 13.984 5.48825 13.9519 5.23432C14.7331 4.42182 15.2531 3.64994 15.43 2.98932C15.5519 2.53182 15.515 2.12932 15.3194 1.79244ZM7.99999 0.999941C9.13245 1.0011 10.2311 1.38615 11.1165 2.09221C12.0019 2.79827 12.6218 3.78364 12.875 4.88744C11.8087 5.89119 10.3656 6.92057 8.99561 7.70807C7.27374 8.69619 5.77999 9.31244 4.58874 9.64994C3.85503 8.96564 3.34434 8.0763 3.12315 7.0977C2.90196 6.11909 2.98051 5.09657 3.34859 4.16323C3.71666 3.2299 4.3572 2.429 5.18682 1.8648C6.01644 1.3006 6.9967 0.999234 7.99999 0.999941ZM1.54624 9.70557C1.45499 9.54869 1.50561 9.25307 1.68499 8.89307C1.86237 8.55577 2.07818 8.24013 2.32811 7.95244C2.57586 8.67025 2.95762 9.33451 3.45311 9.90994C2.37499 10.0912 1.70249 9.97557 1.54624 9.70557ZM7.99999 10.9999C7.15694 11.0008 6.32756 10.787 5.58999 10.3787C6.94379 9.89989 8.25006 9.29603 9.49186 8.57494C10.8406 7.80057 12.0344 6.96119 12.9962 6.13244C12.9606 7.43441 12.4188 8.6712 11.4859 9.58008C10.553 10.489 9.30245 10.9983 7.99999 10.9999ZM14.4637 2.73057C14.3575 3.12494 14.0769 3.57619 13.6744 4.05119C13.4273 3.33252 13.0454 2.66753 12.5494 2.09182C13.4375 1.94494 14.26 1.95619 14.4556 2.29432C14.5119 2.39244 14.515 2.53932 14.4637 2.73057Z" fill="white"/>
</svg>
