<svg width="165" height="48" viewBox="0 0 165 48" fill="none" xmlns="http://www.w3.org/2000/svg">
<path d="M112.564 41.3159C112.629 40.4558 112.39 39.7001 111.916 38.9852C111.432 38.2572 111.191 37.4707 111.555 36.6034L111.613 36.406C111.827 35.6246 111.729 34.9026 111.148 34.3033C110.712 33.8523 110.593 33.3349 110.72 32.7397C110.889 31.9574 110.833 31.2322 110.359 30.5308C109.949 29.9222 109.878 29.2504 110.204 28.5304C110.48 27.926 110.66 27.2733 110.834 26.6301C110.97 26.1289 110.971 25.5982 110.781 25.1105C110.627 24.7126 110.667 24.3515 110.762 23.9599C110.864 23.5468 110.921 23.1203 110.976 22.6979C111.019 22.3728 110.911 22.0853 110.667 21.8623C110.346 21.5699 110.235 21.2058 110.288 20.7916C110.352 20.316 110.445 19.8456 110.195 19.3875C110.151 19.3077 110.176 19.185 110.184 19.0826C110.245 18.2563 110.036 17.4872 109.709 16.7385C109.522 16.3069 109.443 15.8529 109.493 15.3835C109.587 14.4724 109.53 13.5632 109.37 12.6704C109.199 11.7101 108.928 10.7692 108.725 9.81395C108.654 9.48359 108.607 9.13604 108.628 8.80159C108.67 8.11941 108.752 7.43839 108.844 6.75933C108.955 5.94105 109.156 5.1475 109.511 4.39277C109.852 3.66261 110.167 2.92017 110.483 2.1787C110.596 1.91075 110.693 1.63362 110.761 1.35125C110.843 1.01172 110.839 0.669081 110.632 0.360343C110.358 -0.049779 109.996 -0.126431 109.636 0.217193C109.343 0.500381 109.065 0.823696 108.869 1.17748C108.482 1.87291 108.038 2.51709 107.502 3.10525C107.129 3.51537 106.97 4.00427 106.947 4.56262C106.905 5.64771 106.656 6.66433 105.865 7.48539C105.64 7.71961 105.443 7.98347 105.261 8.25339C105.078 8.52135 104.885 8.79847 104.781 9.10017C104.534 9.81084 104.264 10.5268 104.138 11.2651C103.97 12.2478 103.711 13.1991 103.449 14.1584C103.231 14.9551 102.859 15.6095 102.297 16.1844C101.941 16.5485 101.692 16.9801 101.537 17.4566C101.351 18.0272 101.189 18.6041 101.033 19.184C100.963 19.4479 100.915 19.7209 100.89 19.9918C100.77 21.2885 100.675 22.5875 100.543 23.8811C100.511 24.1879 100.539 24.5286 100.325 24.8067L100.234 24.7271C99.8922 24.2596 99.8511 23.7186 99.7985 23.1663C99.6772 21.8716 99.5446 20.58 99.597 19.2761C99.6124 18.8823 99.597 18.4876 99.6091 18.0939C99.6195 17.7717 99.4838 17.5324 99.239 17.3401C99.1456 17.2676 99.0489 17.2001 98.9407 17.1201C98.9603 16.8777 98.9798 16.6394 98.9985 16.4023C99.0427 15.8235 98.9635 15.2856 98.587 14.7998C98.4525 14.628 98.3938 14.3559 98.396 14.1309C98.4009 13.5501 98.4554 12.9682 98.502 12.3882C98.5379 11.9075 98.364 11.5168 98.0268 11.1866C97.9405 11.1038 97.8283 11.0363 97.7666 10.9392C97.6701 10.7878 97.5301 10.6129 97.5395 10.4555C97.5691 9.89404 97.6185 9.32849 97.7285 8.77833C97.8148 8.34462 98.0133 7.9345 98.1378 7.50701C98.3619 6.73378 98.5962 5.96382 98.7731 5.17944C98.8637 4.77849 98.6631 4.49825 98.3237 4.34609C97.9988 4.1977 97.7272 4.23341 97.4672 4.58637C97.0198 5.19189 96.6013 5.82279 96.2209 6.47008C96.0533 6.75736 95.9844 7.10918 95.9094 7.44068C95.7849 7.99706 95.6513 8.55034 95.2339 8.9716C94.7823 9.42774 94.5356 9.98298 94.3752 10.5895C94.3495 10.6897 94.2978 10.7837 94.2384 10.929C93.9566 10.207 93.8415 10.1364 93.2307 10.2816C93.209 10.1835 93.2009 10.0801 93.1629 9.98904C92.9933 9.58105 92.6705 9.51766 92.366 9.84376C92.2385 9.97888 92.1089 10.1342 92.0462 10.305C91.8107 10.9483 91.5733 11.5927 91.3891 12.2501C91.2062 12.9097 91.1136 13.594 90.9358 14.2545C90.543 15.7088 90.254 17.1937 89.6236 18.5785C89.5466 18.7472 89.5176 18.9395 89.4828 19.1236C89.2999 20.1147 89.3277 21.1005 89.5383 22.0853C89.7903 23.2572 89.7658 24.4354 89.5816 25.6136C89.4644 26.3754 89.0152 26.9634 88.5308 27.527C87.7638 28.4177 87.4285 29.4423 87.5242 30.6154C87.5703 31.186 87.6918 31.7283 87.923 32.2529C88.3243 33.1588 88.4722 34.0863 88.1093 35.0468C88.0485 35.2065 88.0044 35.3763 87.9838 35.5448C87.9293 35.9704 87.9128 36.3877 88.1071 36.8039C88.2173 37.0422 88.2665 37.3285 88.2685 37.5943C88.2758 38.6406 88.2511 39.6859 88.2489 40.732C88.2479 40.9171 88.2828 41.1074 88.3334 41.2864C88.4044 41.5462 88.5564 41.7589 88.8353 41.8231C89.1374 41.8927 89.3226 41.6964 89.4787 41.4849C89.7583 41.1054 89.9558 40.686 90.0032 40.2144C90.0897 39.3666 90.3695 38.5834 90.7024 37.8071C90.8526 37.4535 90.9144 37.0473 90.9399 36.6607C90.9893 35.9019 90.8217 35.1616 90.6632 34.4231C90.6242 34.2421 90.5956 34.0446 90.6272 33.8657C90.7846 32.9852 91.123 32.17 91.7966 31.5689C92.3507 31.0709 92.5811 30.5082 92.4856 29.7905C92.4638 29.6197 92.4772 29.4438 92.4411 29.2771C92.3271 28.7606 92.395 28.2626 92.5111 27.7532C92.6695 27.0527 92.8483 26.3481 92.907 25.6353C93.0046 24.4517 93.2082 23.2943 93.4879 22.1446C93.6833 21.3468 93.6864 20.5553 93.4005 19.7668C93.1229 18.9998 93.1476 18.2226 93.416 17.4464C93.5497 17.0587 93.6236 16.6517 93.7521 16.2621C93.894 15.8305 93.9928 15.3724 94.396 14.9336C94.4287 15.1822 94.474 15.3427 94.467 15.4992C94.4391 16.0126 94.4031 16.525 94.3517 17.0343C94.287 17.696 94.4289 18.2635 95.0191 18.6512C95.2813 18.8219 95.416 19.0686 95.4665 19.3712C95.5187 19.6751 95.6721 19.9614 95.9342 20.0811C96.5552 20.3664 96.6591 20.8971 96.7168 21.4729L96.7322 21.6263C96.8546 22.6509 97.0356 23.6502 97.5476 24.5787C97.7544 24.9531 97.7822 25.4286 97.8735 25.8611C97.9352 26.1445 97.9095 26.4565 98.0185 26.7172C98.2334 27.2356 98.1975 27.7502 98.143 28.2839C98.0309 29.4202 98.3393 30.0767 99.3511 30.2762C99.6011 30.3251 99.7409 30.4766 99.7646 30.7333C99.7903 30.988 99.8241 31.2425 99.8572 31.4972C99.9434 32.162 100.048 32.8247 100.465 33.383C100.709 33.7093 101.02 33.8976 101.447 33.7994C101.799 33.7175 102.09 33.3606 102.129 32.9261C102.166 32.5333 102.198 32.1364 102.175 31.7448C102.113 30.6771 102.428 29.719 102.939 28.7985C103.085 28.5356 103.2 28.2329 103.241 27.9361C103.315 27.3951 103.341 26.8452 103.357 26.2978C103.387 25.31 103.566 24.3866 104.365 23.6962L104.469 23.5815C105.187 22.6039 105.593 21.5475 105.341 20.312C105.149 19.363 105.314 18.4385 105.568 17.5242C105.618 17.3452 105.691 17.1724 105.755 16.9965C105.843 17.2073 105.843 17.3955 105.843 17.5835C105.844 18.1645 106.023 18.6584 106.525 19.0052C106.651 19.092 106.757 19.2107 106.859 19.3272C107.108 19.6146 107.24 19.9388 107.131 20.3233C107.03 20.6863 106.929 21.0484 106.817 21.4094C106.602 22.112 106.286 22.8013 106.182 23.5191C106.035 24.5377 106.085 25.5737 106.484 26.5585C106.566 26.7621 106.648 26.9798 106.661 27.1957C106.688 27.6918 106.702 28.1918 106.67 28.6868C106.56 30.3558 107.018 31.8366 108.103 33.1192C108.385 33.4505 108.409 33.7992 108.304 34.2197C108.161 34.7963 108.066 35.3906 108.021 35.9828C107.97 36.619 108.234 37.118 108.872 37.3614L108.96 37.4536C108.96 37.7768 108.963 38.1193 108.958 38.4607C108.953 38.9148 109.104 39.3065 109.45 39.6041C109.721 39.8395 110 40.0776 110.307 40.2617C110.621 40.4509 110.715 40.6933 110.67 41.0369C110.627 41.3591 110.611 41.6842 110.589 42.0095C110.572 42.2824 110.641 42.5228 110.906 42.6609C111.152 42.7886 111.332 42.6404 111.515 42.5084L111.615 42.5023L111.681 42.5741C111.982 42.8758 112.176 42.9267 112.443 42.7754C112.708 42.624 112.764 42.4033 112.667 42.0187C112.609 41.7896 112.546 41.5462 112.564 41.3159Z" fill="#11B0C8"/>
<path d="M30.2502 43.2939C30.1494 42.6589 29.8884 42.0862 29.4317 41.6096C28.8827 41.0319 28.5474 40.3641 28.496 39.5519C28.4364 38.6191 27.8988 38.0044 27.0474 37.6772C26.7676 37.5689 26.5692 37.4227 26.4356 37.169C26.2762 36.8661 26.0942 36.5718 25.9617 36.2578C25.793 35.86 25.4989 35.5922 25.103 35.5051C24.6413 35.4017 24.4377 35.1226 24.336 34.7125C24.2979 34.5621 24.2466 34.4149 24.2238 34.2624C24.0687 33.2797 23.5287 32.5597 22.6815 32.0626C22.4111 31.9031 22.2764 31.6811 22.1489 31.406C21.8897 30.8486 21.6532 30.2544 21.2707 29.7881C20.7256 29.1242 20.0399 28.6129 19.0713 28.9934L18.9489 28.9596C18.8318 28.7153 18.7258 28.4432 18.5777 28.1956C18.2158 27.5953 17.9793 27.5422 17.3726 27.89L17.2894 27.895C17.2369 27.7866 17.1804 27.6669 17.1208 27.5473C16.9132 27.1342 16.7269 26.7076 16.4906 26.3109C16.2787 25.9548 16.0228 25.6318 15.522 25.6552C15.3945 25.6613 15.2618 25.5427 15.0367 25.4376C15.2886 25.2635 15.419 25.148 15.5692 25.0745C16.0371 24.8422 16.3908 24.5046 16.5677 24.0138C16.6479 23.7928 16.7971 23.6702 16.9975 23.6087C17.2432 23.534 17.4961 23.4677 17.7512 23.4451C18.4381 23.3837 18.8936 22.9767 19.2277 22.4408C19.5722 21.8885 19.8261 21.2831 19.9332 20.6306C19.9877 20.293 20.0473 19.9863 20.3969 19.7809C20.5624 19.6837 20.6653 19.4269 20.7259 19.2225C20.8 18.9628 20.832 18.6814 20.8288 18.4115C20.8237 17.942 20.942 17.5494 21.2812 17.1996C21.9024 16.5646 22.0781 15.7791 21.9332 14.9169C21.8159 14.2205 21.742 13.5383 22.0022 12.8419C22.3116 12.0175 22.1142 11.2843 21.4057 10.729C21.1888 10.5592 21.1085 10.3721 21.1455 10.1114C21.1681 9.95891 21.1836 9.80445 21.1906 9.65017C21.2153 9.12146 21.2461 8.59276 21.2493 8.06307C21.2493 7.9178 21.1977 7.74598 21.1104 7.63035C20.4946 6.81731 19.9999 6.56885 19.131 6.87054C18.952 6.93295 18.772 7.00157 18.5871 7.03007C18.2879 7.07904 18.182 6.98306 18.1501 6.68334C18.1275 6.46239 18.1244 6.23751 18.0791 6.02065C17.9885 5.56565 17.7244 5.34471 17.2544 5.32014C17.0836 5.3108 16.9079 5.31915 16.7403 5.35191C16.221 5.45313 15.7748 5.36731 15.3532 5.01124C15.0571 4.75868 14.691 4.58277 14.3404 4.4008C13.7306 4.08371 13.1024 3.80151 12.4967 3.47721C12.1225 3.27477 11.7349 3.16831 11.3141 3.15308C11.1085 3.14489 10.8967 3.17355 10.6951 3.13768C10.0269 3.01812 9.48689 3.26052 8.97491 3.65836C8.40431 4.10124 7.82332 4.53265 7.22686 4.94081C6.44333 5.4777 5.59508 5.74664 4.63979 5.44298L4.43823 5.40203C4.04959 5.28034 3.69883 5.38058 3.34214 5.54616C2.76741 5.81412 2.28919 6.19656 1.88096 6.67007C1.64135 6.94932 1.39763 7.05562 1.02744 6.88692C0.698413 6.73853 0.508211 6.79995 0.351932 7.05677C-0.0222137 7.67146 -0.263959 8.68694 0.512328 9.41906C0.637812 9.53666 0.763295 9.65443 0.896025 9.76367C1.43386 10.2066 1.50665 10.7628 1.30821 11.3917C1.22192 11.6688 1.12624 11.9471 1.07486 12.2313C0.866054 13.4022 0.957779 14.4904 1.96132 15.326C2.17095 15.5 2.34996 15.7178 2.5176 15.9345C2.8178 16.3222 3.04407 16.7343 2.90739 17.261C2.80447 17.6577 2.76033 18.0688 2.65955 18.4647C2.57408 18.7991 2.57408 19.1007 2.77268 19.3994C2.84366 19.5057 2.89405 19.658 2.8817 19.7809C2.84893 20.1019 2.91776 20.3913 3.05659 20.6756C3.20578 20.9793 3.21797 21.2812 3.12147 21.6186C2.96305 22.1687 3.02382 22.7046 3.41344 23.1678C3.57993 23.3652 3.73012 23.5738 3.8966 23.7712C4.14444 24.0637 4.2668 24.3736 4.15054 24.7664C4.01896 25.2102 4.08779 25.6336 4.28936 26.06C4.71719 26.967 4.99483 27.9284 4.99895 28.9338C4.99994 29.5036 5.05445 30.0996 4.7111 30.6285C4.4211 31.0735 4.5866 31.5223 4.88269 31.8616C5.29405 32.3341 5.48639 32.8894 5.69191 33.4541C5.78858 33.7211 5.76602 33.9483 5.61484 34.1844C5.16132 34.8951 5.13662 35.658 5.32073 36.4599C5.45033 37.0234 5.70525 37.5245 6.01369 37.999C6.2337 38.3374 6.3992 38.6873 6.46095 39.082C6.5125 39.4174 6.64605 39.6987 6.91348 39.9216C6.9978 39.9922 7.07997 40.1109 7.0892 40.2162C7.14469 40.7744 7.27841 41.3249 7.11703 41.8977C6.95251 42.4794 7.08821 42.7883 7.62193 43.1043C7.97977 43.3159 8.11135 43.6168 8.13193 43.993C8.14741 44.2834 8.12781 44.577 8.1423 44.8674C8.17112 45.3807 8.32839 45.8441 8.73975 46.1879C8.92584 46.3433 9.12641 46.5028 9.38957 46.3923C9.65783 46.2819 9.76701 46.0426 9.77211 45.7705C9.77919 45.4464 9.76388 45.119 9.74231 44.7949C9.70525 44.2295 9.72584 43.6926 10.3099 43.3734L10.386 43.3047C10.999 42.7005 11.0627 42.0662 10.637 41.3156C10.3244 40.7633 10.1815 40.1772 10.4611 39.5485C10.5711 39.3008 10.6628 39.0278 10.6823 38.76C10.6997 38.4981 10.676 38.2005 10.5621 37.9715C10.3409 37.5298 10.0501 37.1206 9.77541 36.7054C9.34461 36.055 9.10089 35.3915 9.56462 34.6509L9.62835 34.5109C10.0684 33.7122 10.1074 32.9144 9.60991 32.124C9.45774 31.8824 9.43815 31.6505 9.60892 31.4071C9.92658 30.9592 9.86384 30.5112 9.616 30.0529C9.46894 29.783 9.34148 29.4987 9.23856 29.2102C9.04111 28.6579 9.22011 28.3223 9.88129 28.0893C10.1435 28.3734 10.4262 28.6956 10.7244 29.0035C11.1676 29.4595 11.7188 29.6354 12.3276 29.4628C12.7862 29.3329 13.0576 29.5221 13.2807 29.8575C13.5182 30.2156 13.7197 30.5959 13.9635 30.9477C14.1578 31.2268 14.3696 31.5019 14.6164 31.7352C14.8745 31.9817 15.076 31.9489 15.3341 31.7013C15.8133 31.2373 15.916 31.2289 16.3737 31.7024C16.6246 31.9653 16.895 32.1523 17.2735 32.1076C17.5562 32.0727 17.7362 32.1903 17.8482 32.4368C18.0878 32.9665 18.3449 33.4892 18.5649 34.0261C18.8405 34.701 19.296 34.9138 19.9531 34.6376C20.0476 34.5978 20.1403 34.5518 20.2368 34.5128C20.608 34.3636 20.6461 34.3563 20.859 34.7141C21.1212 35.1549 21.3608 35.6112 21.5808 36.0754C21.8759 36.6943 22.3612 37.1002 23.0163 37.2147C23.4151 37.2853 23.6249 37.4715 23.7853 37.7935C23.8686 37.9623 23.9694 38.124 24.0527 38.2927C24.4394 39.073 24.8774 39.8012 25.7812 40.0908L25.9539 40.2011C26.3992 40.5079 26.8198 40.8258 26.8496 41.4395C26.8804 42.0493 27.1312 42.5993 27.3596 43.1557C27.5159 43.5352 27.7431 43.841 28.1114 44.0374C28.4106 44.1979 28.6141 44.4372 28.7333 44.7605C28.8475 45.0651 28.9853 45.3627 29.1302 45.6531C29.3328 46.0562 29.7008 46.3068 29.959 46.2391C30.2275 46.1686 30.3692 45.875 30.3559 45.3709C30.3508 45.15 30.2367 44.9046 30.3014 44.7131C30.4672 44.2234 30.3243 43.7602 30.2502 43.2939ZM14.5622 21.4829C14.4554 21.5504 14.3195 21.5781 14.193 21.6058C13.9123 21.6711 13.6193 21.6988 13.3468 21.7889C13.0383 21.8913 12.7328 22.02 12.4491 22.1795C12.2311 22.3034 12.0203 22.468 11.863 22.6591C11.6367 22.9362 11.3705 23.1285 11.0064 23.2738C10.8829 23.1706 10.7648 23.0487 10.626 22.9557C10.0172 22.5476 9.6491 22.5181 9.16281 22.881C9.03008 22.9803 8.87479 23.0468 8.61262 23.194C8.66202 22.8709 8.67536 22.6602 8.72987 22.4608C8.78026 22.2807 8.88302 22.1161 8.94988 21.9402C9.15556 21.4002 9.09282 21.1742 8.59714 20.8612C8.3936 20.7335 8.31637 20.586 8.32164 20.3592C8.32987 20.0166 8.32477 19.6729 8.32263 19.3293C8.32065 18.823 8.11793 18.4447 7.643 18.2165C7.32419 18.0631 7.29652 17.9527 7.37475 17.6009C7.42398 17.3861 7.46515 17.1652 7.48985 16.9454C7.5773 16.2049 7.20513 15.6895 6.65807 15.2507C6.56453 15.176 6.46886 15.0338 6.47199 14.9244C6.48434 14.3998 6.30846 13.8752 6.5153 13.3485C6.64588 13.014 6.43296 12.7461 6.20472 12.5302C5.84687 12.1948 5.80472 11.7877 5.89315 11.348C5.9661 10.9778 6.13687 10.8663 6.51019 10.9174C6.61196 10.9328 6.719 10.9347 6.81649 10.9634C7.66392 11.2181 8.33119 10.8981 8.92139 10.3212C9.01904 10.2251 9.1218 10.1319 9.21748 10.0338C9.5414 9.70029 9.9414 9.58269 10.3939 9.62986C10.6859 9.6595 10.9738 9.72895 11.2649 9.74435C11.6412 9.76482 12.0176 9.75057 12.4371 9.75057C13.2596 11.2364 13.6124 11.4145 14.8792 10.9562C15.1836 11.262 15.5259 11.5393 15.3028 12.0791C15.201 12.3278 15.2936 12.5926 15.4714 12.8001C15.7161 13.0876 15.9608 13.376 16.2293 13.6408C16.4112 13.8218 16.6334 13.963 16.8422 14.1256C16.7085 14.3454 16.6447 14.4621 16.5696 14.5695C16.2643 15.0083 16.2036 15.3151 16.5357 15.6934C16.9943 16.2139 16.7538 16.7621 16.7269 17.3093L16.6622 17.4443C16.3353 17.8105 16.002 18.1735 15.6761 18.5407C15.3533 18.9038 15.2567 19.3578 15.1826 19.8149C15.1394 20.0849 15.1241 20.3602 15.0808 20.6311C15.0238 20.9818 14.8748 21.2885 14.5622 21.4829Z" fill="#11B0C8"/>
<path d="M164.337 21.1403C164.095 21.0238 163.864 21.0789 163.638 21.1762C163.055 21.4268 162.464 21.6629 161.897 21.9463C161.531 22.1283 161.145 22.3309 160.869 22.6193C160.006 23.5254 158.764 23.8546 157.839 24.6555L157.746 24.7004C156.917 25.0327 156.104 25.4141 155.254 25.6811C154.512 25.9134 153.75 26.0532 153.251 26.759C153.238 26.5751 153.255 26.4257 153.306 26.2886C153.458 25.8847 153.388 25.5124 153.167 25.1604C153.004 24.8987 152.818 24.6502 152.655 24.3874C152.577 24.2616 152.48 24.1143 152.482 23.9792C152.491 23.6428 152.341 23.3984 152.151 23.1406C152.03 22.9719 151.93 22.7439 151.924 22.5403C151.892 21.4798 151.897 20.4191 151.877 19.3598C151.866 18.826 151.635 18.4116 151.164 18.1274C151.028 18.0446 150.874 17.9014 150.834 17.7583C150.548 16.7221 149.921 15.7925 149.874 14.683C149.868 14.5654 149.833 14.4447 149.79 14.3343C149.451 13.4548 149.125 12.5701 148.756 11.704C148.604 11.346 148.368 11.0178 148.136 10.6997C148.048 10.581 147.83 10.439 147.729 10.4747C147.581 10.5248 147.416 10.713 147.386 10.8664C147.333 11.1457 147.365 11.4421 147.376 11.7327C147.405 12.6194 147.441 13.5082 147.476 14.4101C146.914 14.5349 146.779 14.9072 146.81 15.353C146.854 15.9494 146.923 16.5425 146.991 17.1355C147.03 17.4751 147.118 17.8107 147.128 18.15C147.147 18.8178 147.135 19.4877 147.124 20.1554C147.112 20.9041 147.234 21.6282 147.558 22.3032C147.828 22.8695 147.995 23.4546 148.023 24.0785C148.038 24.4028 148.056 24.729 148.046 25.0533C148.036 25.3743 148.153 25.6269 148.401 25.8143C148.574 25.9442 148.771 26.0411 149.058 26.2131C148.834 27.0219 148.627 27.8515 148.372 28.6674C148.129 29.4508 147.799 30.2024 148.024 31.0658C148.127 31.4554 147.969 31.6151 147.579 31.7489C147.335 31.8329 147.08 31.8872 146.839 31.98C146.215 32.2223 145.58 32.4444 144.979 32.739C144.462 32.9937 144.432 33.3198 144.798 33.7687L144.877 33.8822L144.818 33.9784C144.701 34.05 144.582 34.1184 144.46 34.1808C143.679 34.5828 143.049 35.1616 142.493 35.8243C142.116 36.2742 142.109 36.577 142.416 37.0361C142.773 37.5689 142.764 37.747 142.292 38.1712C141.719 38.6887 141.13 39.1911 140.54 39.689C140.273 39.915 140.047 40.1574 139.923 40.495C139.882 40.6083 139.782 40.7444 139.677 40.7824C139.051 41.0083 138.66 41.4695 138.356 42.0249C138.086 42.5199 137.724 42.9228 137.218 43.1837C136.944 43.3236 136.646 43.4189 136.378 43.5683C135.178 44.236 134.193 45.1768 133.212 46.1137C132.986 46.3286 132.854 46.6527 132.723 46.9462C132.586 47.2499 132.521 47.5751 132.837 47.8359C133.104 48.0547 133.421 48.0559 133.799 47.8349L134.009 47.6877C134.709 47.1038 135.397 46.5076 136.107 45.9378C136.37 45.726 136.666 45.5195 136.982 45.4153C137.599 45.2107 138.237 45.0645 138.875 44.9223C139.564 44.7669 140.163 44.4866 140.663 43.965C141.327 43.2695 142.031 42.6109 142.721 41.9391C142.831 41.8328 142.949 41.7253 143.08 41.6477C143.526 41.3797 143.852 40.9993 144.039 40.5318C144.37 39.7014 144.921 39.0265 145.492 38.3607C145.748 38.0609 146.031 37.7818 146.27 37.4677C146.421 37.2694 146.56 37.0374 146.62 36.7978C146.809 36.0573 147.235 35.5155 147.868 35.1023C148.746 34.5276 149.608 33.9333 150.482 33.3516C150.864 33.0979 151.144 32.7655 151.352 32.3564C151.482 32.0998 151.649 31.8544 151.834 31.6325C152.366 30.9932 153.047 30.5985 153.853 30.3631C155.144 29.9858 156.062 29.1411 156.643 27.9435C156.795 27.6307 157.027 27.4189 157.306 27.2492C157.495 27.1326 157.702 27.0384 157.911 26.9608C158.518 26.7336 159.034 26.3747 159.519 25.9523C159.803 25.7049 160.103 25.4605 160.433 25.2856C161.433 24.76 162.315 24.0788 163.132 23.3118C163.609 22.8659 164.063 22.3946 164.506 21.9168C164.791 21.6128 164.709 21.3193 164.337 21.1403Z" fill="#11B0C8"/>
<path d="M80.3528 30.3957C80.0659 29.7126 79.8108 29.0283 79.8571 28.2644C79.889 27.7376 79.8438 27.207 79.8634 26.6792C79.8788 26.2527 79.8953 25.819 79.9908 25.406C80.1604 24.6737 80.3836 23.9517 80.5965 23.2296C80.6963 22.8931 80.6747 22.5741 80.4545 22.3042C80.142 21.9186 80.1081 21.487 80.214 21.0412C80.3457 20.493 80.5226 19.9542 80.6686 19.4089C80.721 19.2137 80.7806 19.0081 80.7704 18.8096C80.7549 18.4712 80.6202 18.1581 80.283 18.0202C79.923 17.8718 79.6012 18.0098 79.3543 18.285C79.1847 18.4743 79.0079 18.6819 78.9163 18.9141C78.7538 19.3252 78.6377 19.7578 78.5306 20.1884C78.322 21.032 78.1326 21.8819 77.9343 22.7277L77.8655 22.921C77.4604 23.5427 77.3196 24.2423 77.2249 24.9613C77.1766 25.3344 76.9781 25.5801 76.6255 25.7876C76.1155 26.0894 75.6404 26.4729 75.2157 26.8869C74.8125 27.2789 74.4898 27.7522 74.1341 28.191C74.1443 27.8914 74.128 27.5874 74.1804 27.2972C74.3633 26.2888 74.5752 25.2844 74.7715 24.2762C74.8692 23.773 74.9753 23.2677 75.039 22.7595C75.0708 22.4947 75.0668 22.2043 74.9907 21.9517C74.896 21.6397 74.7049 21.3503 74.3192 21.3269C73.9521 21.3023 73.7013 21.5016 73.5243 21.8035C73.4647 21.9068 73.4121 22.0162 73.3668 22.1266C72.9145 23.2425 72.4651 24.3592 71.9839 25.5507C71.8235 24.8226 71.5243 24.2937 70.7027 24.4811C70.4149 24.0054 70.3439 23.5114 70.2462 23.0278C70.1682 22.6442 69.9841 22.3251 69.7156 22.046C69.508 21.8302 69.2448 21.8302 68.9958 21.9212C68.7419 22.0154 68.5711 22.1964 68.5711 22.5032C68.5711 22.7579 68.5311 23.0124 68.5125 23.2681C68.4815 23.6924 68.4302 24.1179 68.4282 24.5423C68.4272 24.9862 68.4539 25.4332 68.5053 25.8749C68.5823 26.5356 68.1762 26.9693 67.8286 27.4951C67.657 27.1472 67.4852 26.8671 67.3762 26.5633C67.3021 26.3599 67.3351 26.1217 67.2878 25.9058C67.2127 25.5724 67.0996 25.2481 67.0235 24.9148C66.9372 24.5333 66.8672 24.1478 66.8013 23.7642C66.7696 23.5781 66.7788 23.387 66.7449 23.2027C66.5804 22.313 66.3243 21.4397 66.3211 20.5223C66.3202 20.2359 66.279 19.9404 66.2051 19.6633C66.1206 19.3514 65.8872 19.1867 65.6486 19.2409C65.3433 19.3115 65.0368 19.4137 64.8723 19.705C64.7058 20.0017 64.5505 20.3094 64.4333 20.6285C64.3098 20.965 64.2368 21.3198 64.1444 21.6675C64.0807 21.9109 63.9439 22.0613 63.6725 22.048C63.1758 22.0256 62.926 22.3353 62.7491 22.7331C62.6248 23.0155 62.5364 23.3141 62.3923 23.5861C62.0129 24.3091 61.9172 25.0445 62.2309 25.8146C62.3378 26.0773 62.3625 26.3453 62.2629 26.6154C61.9203 27.5449 61.7558 28.541 61.2007 29.393C61.0907 29.5617 60.994 29.7661 60.9775 29.9627C60.9487 30.295 60.8707 30.7072 61.0238 30.9567C61.3005 31.3996 61.353 31.8393 61.3395 32.322C61.3354 32.4232 61.3499 32.5295 61.3736 32.6278C61.4538 32.9428 61.7026 33.1677 61.975 33.1821C62.2752 33.1963 62.4603 33.043 62.5724 32.6563C62.6556 32.3741 62.7554 32.1134 62.9766 31.8986C63.2338 31.6469 63.2883 31.3156 63.1617 30.9914C63.0599 30.7256 63.137 30.5282 63.284 30.3256C63.3952 30.1733 63.5277 30.0313 63.6152 29.8677C63.6995 29.7072 63.7889 29.5239 63.7879 29.3511C63.7828 28.7744 64.0942 28.3633 64.4295 27.9163C64.5468 28.0053 64.6167 28.0903 64.7062 28.1219C65.1164 28.2619 65.2623 28.6005 65.3766 28.9655C65.5379 29.4892 65.6624 30.0262 65.864 30.5333C66.1395 31.2319 66.4707 31.908 66.7832 32.5931L66.9107 32.7534C67.0815 32.9334 67.2819 32.9824 67.5215 32.9017C67.8372 32.7983 68.0264 32.5846 68.0285 32.2614C68.0305 31.5784 68.0069 30.8941 67.9883 30.2102C67.978 29.8275 67.9524 29.444 67.9319 29.0022C68.2948 29.1947 68.4377 29.4135 68.4069 29.7427C68.3925 29.8952 68.4193 30.0536 68.3956 30.2039C68.302 30.7949 68.6885 31.1192 69.0773 31.4394C69.2264 31.5611 69.4115 31.5632 69.5534 31.4322C69.9216 31.0907 70.2824 30.7408 70.2116 30.1651C70.192 30.0159 70.1879 29.8533 70.225 29.709C70.3679 29.1557 70.3156 28.6239 70.0985 28.1022C70.0264 27.9304 69.9948 27.7658 70.1026 27.5562C70.3534 27.7833 70.6146 27.9437 70.7679 28.1759C71.1289 28.7159 71.4475 29.2846 71.7622 29.8531C72.0111 30.302 72.2219 30.7705 72.4634 31.2235C72.5899 31.4597 72.7771 31.6467 73.0752 31.6192C73.3776 31.5905 73.5801 31.4291 73.6644 31.1242C73.7168 30.9331 73.794 30.749 73.8701 30.5333L73.937 30.6068L73.9575 30.7582C73.9995 31.4577 74.3811 31.8883 75.0258 32.1247C75.2509 32.2064 75.4709 32.3047 75.6787 32.4203C76.5219 32.8895 77.477 32.7146 78.0787 31.9712C78.1734 31.8547 78.2629 31.734 78.3964 31.5612C78.4531 31.821 78.4982 32.0184 78.5364 32.2157C78.635 32.7036 78.8746 33.1136 79.2325 33.4521C79.5699 33.7712 80.0293 33.7948 80.4162 33.534C80.7564 33.3039 80.9364 33.0073 80.9003 32.581C80.8349 31.8203 80.6457 31.0962 80.3528 30.3957ZM63.9213 25.8161C64.2205 25.0235 64.5023 24.2811 64.7829 23.5375L64.9166 23.5712C64.9166 23.9619 64.8601 24.3628 64.9321 24.7402C64.9999 25.0877 65.2066 25.4101 65.3825 25.8159L63.9213 25.8161ZM77.3728 29.6921C77.199 29.8352 77.0685 30.0306 76.9039 30.1882C76.6222 30.4601 76.2694 30.4119 76.2139 30.0531C76.1616 29.7208 76.252 29.3617 76.3075 29.0191C76.362 28.6835 76.5018 28.4432 76.8741 28.295C77.2063 28.16 77.4685 27.8542 77.852 27.5555C77.9384 28.3821 78.074 29.1121 77.3728 29.6921Z" fill="#11B0C8"/>
<path d="M56.014 14.5726C55.6448 14.634 55.2583 14.6647 54.9158 14.8017C54.5046 14.9654 54.0964 15.1832 53.7468 15.4531C52.7009 16.2611 51.6789 17.1016 50.6558 17.9392C50.4018 18.1479 50.1807 18.4046 49.8136 18.3698C49.4969 18.3402 49.2409 18.464 49.0065 18.6511C48.6301 18.9496 48.2661 19.2667 47.8856 19.5612C47.7107 19.6963 47.5216 19.8231 47.3191 19.9111C46.9789 20.0604 46.623 20.1759 46.2693 20.3068C46.0318 19.8906 46.0122 19.4559 46.2446 19.005C46.3393 18.823 46.4194 18.6257 46.4524 18.4262C46.55 17.8392 46.6826 17.2541 46.3371 16.6794C46.2334 16.5076 46.2683 16.2509 46.2497 16.0311C46.225 15.7427 46.2899 15.4133 46.1736 15.1721C45.9781 14.7701 46.0501 14.4193 46.1787 14.0441C46.2279 13.8978 46.2816 13.7525 46.3216 13.6043C46.4996 12.9508 46.5571 12.2881 46.4213 11.6204C46.2722 10.8799 45.6316 10.6488 45.0228 11.108C44.9128 11.1899 44.8038 11.2717 44.704 11.3463C44.0932 11.1929 43.976 11.2092 43.7077 11.6059C43.5873 11.784 43.4989 12.0069 43.4732 12.2187C43.4393 12.5223 43.4856 12.8343 43.4793 13.1431C43.462 14.1004 43.5452 15.0771 43.3836 16.0097C43.174 17.2184 42.8983 18.4273 42.446 19.584C42.3103 19.9306 42.2691 20.3142 42.1848 20.6802C42.1056 21.0289 42.0479 21.3838 41.943 21.7245C41.7795 22.2624 41.5697 22.787 41.4073 23.327C41.3509 23.5173 41.3477 23.7371 41.3724 23.9378C41.4136 24.2689 41.612 24.5063 41.9327 24.6126C42.2217 24.7087 42.4325 24.5595 42.6083 24.3499C42.816 24.0993 43.0176 23.8436 43.2303 23.5951C43.3219 23.4887 43.4309 23.3976 43.5325 23.2995L43.6549 23.368C43.5829 23.6584 43.5058 23.9499 43.439 24.2436C43.3886 24.4583 43.3207 24.6761 43.3176 24.893C43.3072 25.6906 43.1941 26.4506 42.7654 27.1531C42.5866 27.4477 42.4847 27.8485 42.7891 28.1061C43.1213 28.3885 43.0823 28.6963 43.0215 29.0338C42.8313 30.0963 42.638 31.1568 42.4364 32.2164C42.4015 32.4005 42.3448 32.5846 42.2647 32.7533C41.987 33.3332 41.8925 33.956 41.7527 34.5746C41.6036 35.2394 41.9141 35.6608 42.3099 36.0791C42.5495 36.3338 42.7901 36.3603 43.0317 36.1117C43.2662 35.8714 43.5088 35.5892 43.6076 35.2813C43.8111 34.6432 44.0302 34.0174 44.318 33.413C44.39 33.2595 44.43 33.0879 44.4661 32.9221C44.6068 32.2688 44.7396 31.6141 44.8763 30.9605C45.0047 30.3418 45.1345 29.724 45.2814 29.0256C45.8304 29.2813 46.0957 28.9234 46.3816 28.5839C46.4453 28.5063 46.5667 28.4766 46.69 28.41C46.8053 28.7146 46.8637 28.9939 47.0098 29.2169C47.1559 29.4387 47.3924 29.6033 47.5845 29.7967L47.7028 29.9643C48.1367 30.7631 48.6169 31.5507 48.6806 32.4855C48.7206 33.0663 49.0118 33.4816 49.4426 33.8253C49.9526 34.2313 50.2416 34.7793 50.3691 35.3868C50.5459 36.2193 50.9675 36.9157 51.4693 37.5683C51.6924 37.8585 51.7983 38.152 51.8373 38.5019C51.8693 38.7882 51.895 39.0972 52.0226 39.3465C52.2363 39.765 52.3999 40.179 52.4348 40.6535C52.4595 41.0003 52.735 41.2068 53.062 41.2119C53.426 41.216 53.604 41.0654 53.6924 40.6719C53.7077 40.6065 53.7099 40.5369 53.7212 40.4347C54.2385 40.4429 54.4944 40.3068 54.5603 39.9121C54.6507 39.3721 54.7093 38.8239 54.4965 38.2891C54.3948 38.0344 54.3114 37.7727 54.2251 37.5119C53.7193 35.9818 53.233 34.4511 53.1486 32.8188C53.1269 32.4332 52.9173 32.0282 52.7024 31.6896C52.3373 31.117 52.0616 30.5372 51.9528 29.8551C51.8047 28.9324 51.4253 28.6083 50.5008 28.455C50.1533 28.3967 49.8386 28.2902 49.6196 27.9813C49.123 27.281 48.612 26.5906 48.1102 25.8962C48.0392 25.7979 47.9847 25.6906 47.9231 25.5873C47.7555 25.3111 47.5992 25.0278 47.4202 24.7598C47.0582 24.2147 47.2588 23.5735 47.88 23.3362C48.2665 23.1899 48.6553 23.053 49.0408 22.9058C50.1388 22.4874 50.9008 21.7778 51.1857 20.5946C51.3522 19.9085 51.709 19.3264 52.4288 19.0564C52.5738 19.0022 52.7024 18.9082 52.8432 18.8448C53.562 18.5145 54.0791 17.9826 54.4153 17.2759C54.5459 17.0029 54.7587 16.826 54.9871 16.6337C55.4724 16.2257 55.9198 15.7727 56.3701 15.3247C56.5057 15.1907 56.5932 15.0168 56.4842 14.8124C56.3832 14.6216 56.2197 14.5377 56.014 14.5726Z" fill="#11B0C8"/>
<path d="M133.042 36.8304C133.213 36.5952 133.269 36.3191 133.185 36.0472C133.051 35.6073 132.9 35.1698 132.72 34.7452C132.424 34.057 132.256 33.3739 132.377 32.6018C132.567 31.3868 132.297 30.2321 131.552 29.2441C131.234 28.8219 131.117 28.4219 131.187 27.9198C131.232 27.6007 131.229 27.2725 131.039 26.9729C130.607 26.2907 130.193 25.5994 129.446 25.1873C129.185 25.0442 129.195 24.7362 129.452 24.5656C129.609 24.4622 129.796 24.408 129.962 24.316C130.261 24.1513 130.576 24.002 130.845 23.7954C131.18 23.5376 131.536 23.3567 131.953 23.2779C132.115 23.2471 132.27 23.1622 132.418 23.0826C132.922 22.8127 133.252 22.38 133.54 21.9024C133.708 21.6243 133.768 21.3327 133.733 21.0166C133.711 20.8122 133.708 20.6014 133.651 20.4062C133.571 20.1322 133.513 19.812 133.331 19.6156C132.988 19.2423 132.767 18.8035 132.495 18.3915C132.331 18.1389 132.27 17.9435 132.448 17.652C132.71 17.2245 132.608 16.843 132.241 16.4994C131.836 16.123 131.373 15.9532 130.819 16.078C130.358 16.1812 129.93 16.0729 129.522 15.8664C128.881 15.5411 128.47 15.5729 127.999 16.1006C127.521 16.6375 127.099 17.2256 126.655 17.7922C126.585 17.8809 126.521 17.9751 126.44 18.0876C126.172 17.8421 126.193 17.5466 126.158 17.2644C126.08 16.6365 126.016 16.0054 125.89 15.3878C125.815 15.0207 125.566 14.861 125.277 14.8589C124.961 14.855 124.669 15.0799 124.573 15.4338C124.535 15.5748 124.551 15.7324 124.546 15.8827C124.529 16.3256 124.54 16.7705 124.493 17.2112C124.406 18.0611 124.219 18.9059 124.197 19.7568C124.175 20.6905 124.037 21.5935 123.837 22.5007C123.771 22.8085 123.806 23.1429 123.826 23.4639C123.852 23.8772 124.1 24.1461 124.456 24.3413C124.901 24.5828 125.007 24.8825 124.816 25.3619C124.71 25.633 124.564 25.8877 124.459 26.1597C124.277 26.6262 124.247 27.1066 124.499 27.5525C124.771 28.0364 124.779 28.5005 124.626 29.0304C124.506 29.4476 124.456 29.917 124.513 30.3453C124.586 30.8977 124.591 31.4356 124.524 31.9807C124.496 32.2015 124.47 32.4296 124.498 32.6463C124.522 32.8191 124.594 33.0165 124.711 33.1423C125.15 33.6127 125.854 33.5011 126.104 32.8907C126.248 32.5359 126.306 32.1268 126.312 31.7422C126.323 31.1459 126.444 30.6008 126.69 30.0547C126.869 29.6579 126.933 29.2038 127.017 28.7701C127.066 28.5084 127.052 28.2364 127.063 28.0431C127.185 28.1332 127.337 28.2375 127.484 28.3499C128.182 28.8805 128.684 29.5688 129.113 30.3205C129.274 30.6019 129.461 30.8831 129.691 31.107C130.185 31.5858 130.373 32.1491 130.34 32.8221C130.325 33.1432 130.327 33.4921 130.438 33.7836C130.652 34.349 130.796 34.9238 130.911 35.5149C131.018 36.0559 131.232 36.5674 131.651 36.9578C132.092 37.3684 132.694 37.3121 133.042 36.8304ZM129.039 21.9481C128.906 22.1956 128.689 22.3972 128.489 22.6406C128.368 22.5557 128.259 22.5179 128.215 22.4422C128.015 22.1007 127.778 21.801 127.466 21.5463C127.352 21.4533 127.35 21.2273 127.286 21.0288C127.822 20.9051 128.118 20.6227 128.299 20.1749C128.606 19.4192 128.778 19.3414 129.808 19.4385C129.051 19.9468 129.057 20.5533 129.219 21.2333C129.271 21.4492 129.153 21.7345 129.039 21.9481Z" fill="#11B0C8"/>
<path d="M133.194 24.5122C132.8 24.6154 132.634 24.8886 132.712 25.2792C132.803 25.7332 133.079 25.99 133.541 25.9491C133.944 25.9134 134.272 26.0565 134.628 26.1905C135.164 26.3929 135.573 26.892 136.242 26.8114C136.2 26.9433 136.19 27.0322 136.148 27.1016C135.878 27.5588 135.779 28.0487 135.762 28.5752C135.754 28.8147 135.636 29.0694 135.509 29.2831C135.34 29.5715 135.285 29.8598 135.372 30.1687C135.441 30.4151 135.521 30.6656 135.646 30.8866C135.795 31.1493 135.803 31.3642 135.675 31.6484C135.4 32.2621 135.326 32.9004 135.667 33.5313C135.721 33.6335 135.764 33.7602 135.759 33.8728C135.721 34.607 135.781 35.3709 135.595 36.0665C135.334 37.034 135.312 37.9944 135.334 38.969C135.345 39.415 135.437 39.8608 135.717 40.2288C135.985 40.5806 136.32 40.551 136.543 40.1715C136.594 40.0845 136.622 39.9825 136.653 39.8841C136.804 39.3953 136.953 38.9054 137.098 38.4126C137.175 38.1507 137.274 37.8901 137.307 37.622C137.445 36.4684 137.576 35.3128 137.682 34.1561C137.741 33.5139 137.843 32.9004 138.231 32.3623C138.318 32.2408 138.397 32.0873 138.408 31.943C138.445 31.45 138.514 30.95 138.327 30.4671C138.24 30.2464 138.251 30.0356 138.369 29.8271C138.723 29.2002 138.756 28.5292 138.67 27.8338C138.63 27.5167 138.635 27.1925 138.62 26.8725L138.745 26.7814C138.924 26.8643 139.137 26.9092 139.276 27.0361C139.867 27.5771 140.587 27.6325 141.308 27.5219C141.707 27.4597 142.006 27.5209 142.311 27.7501C142.706 28.0475 143.159 28.2011 143.656 28.2205C144.354 28.2449 144.621 28.0067 144.653 27.3349C144.793 27.2337 144.943 27.1447 145.072 27.0332C145.427 26.7253 145.46 26.345 145.128 26.0062C144.965 25.8395 144.752 25.6964 144.534 25.6146C144.248 25.5072 143.937 25.4487 143.632 25.4089C143.413 25.3804 143.248 25.3067 143.103 25.138C142.82 24.8057 142.443 24.6543 142.008 24.6471C141.682 24.6421 141.355 24.646 141.022 24.646C140.583 24.0447 140.448 24.0018 139.631 24.1102C139.28 24.1551 138.92 24.2432 138.511 24.0652C138.594 23.8013 138.649 23.5324 138.762 23.2929C139.101 22.5731 139.33 21.8192 139.472 21.0442C139.627 20.2005 139.791 19.365 140.192 18.5937L140.223 18.4956C140.312 17.9035 140.33 17.3339 139.819 16.8869C139.412 16.532 139.402 16.439 139.673 15.9746C139.95 15.5001 140.251 15.0389 140.502 14.552C140.648 14.2688 140.774 13.9527 140.807 13.6408C140.871 13.014 140.439 12.655 139.805 12.7552C139.239 12.8452 138.9 13.2073 138.674 13.7054C138.513 14.0623 138.338 14.4131 138.166 14.7678C137.726 15.676 137.263 16.5729 137.133 17.5987C137.087 17.9659 136.945 18.3228 136.82 18.6766C136.628 19.2299 136.471 19.7904 136.481 20.3805C136.487 20.7834 136.399 21.1578 136.219 21.5198C135.976 22.0107 135.911 22.5222 136.02 23.0692C136.143 23.6829 135.951 23.9008 135.337 23.9037C135.001 23.9047 134.68 23.9353 134.412 24.1594C134.177 24.3567 133.903 24.4303 133.603 24.4478C133.466 24.4558 133.327 24.4775 133.194 24.5122Z" fill="#11B0C8"/>
<path d="M39.6463 28.8288C39.0304 29.2695 38.6283 29.2738 38.0041 28.8401C37.82 28.7123 37.6463 28.5702 37.4602 28.4473C37.1343 28.2306 36.7929 28.1589 36.4586 28.429C36.2561 28.5916 36.0504 28.5875 35.8344 28.4771C35.4714 28.2899 35.132 28.3617 34.8083 28.5661C34.5606 28.7205 34.3302 28.9046 34.0782 29.0499C33.7308 29.2482 33.4088 29.0653 33.4037 28.6684C33.4016 28.5353 33.4284 28.3921 33.4828 28.2706C33.5938 28.0211 33.7255 27.7807 33.8602 27.5434C34.0298 27.2468 34.2447 26.9698 34.3806 26.6588C34.6922 25.943 34.578 25.5892 33.9498 25.1749C33.8788 25.1278 33.8069 25.0828 33.6926 25.0091C33.782 24.3464 34.2098 23.9568 34.6622 23.5794C35.2689 23.0741 35.8816 22.5751 36.4657 22.0442C36.7928 21.7466 37.0097 21.3745 36.7814 20.9102C37.1073 20.7056 37.4353 20.6278 37.7881 20.6309C38.0812 20.633 38.3743 20.634 38.6673 20.6227C39.4077 20.5941 40.0534 20.36 40.5079 19.7443C40.7002 19.4824 40.7895 19.1839 40.6273 18.8759C40.4792 18.5928 40.2241 18.4639 39.9014 18.4781C39.3347 18.5025 38.7672 18.5109 38.2027 18.561C37.9467 18.5844 37.74 18.5865 37.558 18.3687C37.3586 18.1304 37.081 18.0516 36.7672 18.0711C35.9888 18.1212 35.2855 18.381 34.6902 18.8781C34.5062 19.0315 34.3241 19.282 34.2943 19.508C34.2213 20.0786 33.9066 20.3446 33.3772 20.4396L33.1313 20.5153C32.1011 20.8088 31.7607 21.225 31.6198 22.2681C31.5621 22.7038 31.5035 23.1732 31.3021 23.5496C31.0141 24.0814 30.8631 24.6183 30.8302 25.2083C30.8096 25.5981 30.6574 25.9345 30.3901 26.2247C30.2041 26.4262 29.9933 26.6216 29.8699 26.8601C29.7074 27.1719 29.5676 27.5145 29.5109 27.8601C29.439 28.2907 29.7217 28.5718 30.1578 28.6045C30.236 28.6106 30.3141 28.6055 30.4415 28.6055C30.3294 28.797 30.2174 28.9318 30.1639 29.0884C30.06 29.392 29.9386 29.7031 29.9119 30.0169C29.8698 30.5078 30.1041 30.7369 30.607 30.7757C30.8474 30.7952 31.0892 30.7841 31.3308 30.7891C31.8327 30.8014 31.99 30.966 31.8923 31.4548C31.8039 31.9058 31.8943 32.2943 32.2698 32.55C32.6162 32.7885 32.6872 33.0993 32.6954 33.4747C32.7006 33.7131 32.7253 33.9564 32.7919 34.1846C32.8423 34.3562 32.9472 34.5282 33.0706 34.6611C33.2824 34.8922 33.5784 34.9175 33.8057 34.7081C34.002 34.5251 34.1769 34.302 34.3055 34.0668C34.5018 33.7068 34.6325 33.31 34.8247 32.948C34.9769 32.6638 35.1547 32.3854 35.3634 32.1412C35.5453 31.9273 35.7726 31.8292 36.0965 31.9509C36.294 32.0254 36.5747 31.9764 36.7855 31.8967C37.0375 31.8017 37.2771 31.641 37.4785 31.461C37.8291 31.145 38.2024 31.0582 38.6661 31.1349C39.7304 31.3108 40.7093 30.6113 40.8799 29.5539C40.9158 29.336 40.8695 29.0618 40.7575 28.8748C40.5204 28.4752 40.1347 28.4791 39.6463 28.8288Z" fill="#11B0C8"/>
<path d="M122.018 26.0154C121.64 25.5624 121.548 25.1288 121.801 24.6009C121.963 24.2616 122.129 23.9168 122.229 23.5568C122.477 22.6732 122.459 21.8018 122.012 20.9664C121.919 20.7914 121.875 20.5797 121.854 20.3803C121.807 19.956 121.661 19.603 121.344 19.2933C120.785 18.7451 120.182 18.2879 119.43 18.0251C118.396 17.6651 117.436 17.7848 116.636 18.5179C116.121 18.9894 115.725 19.5856 115.267 20.1184C115.125 20.283 114.971 20.4519 114.79 20.5664C113.989 21.0726 113.365 21.7077 113.208 22.6814C113.116 23.251 112.915 23.7448 112.528 24.2C112.03 24.7849 111.99 25.6642 112.418 26.2097C112.982 26.9305 113.084 27.7262 112.969 28.5893C112.924 28.9279 112.902 29.2694 112.863 29.6818C112.907 29.9884 112.92 30.37 113.024 30.7257C113.144 31.1388 113.476 31.3557 113.843 31.2626C114.271 31.1521 114.57 31.3494 114.894 31.5511C115.152 31.7126 115.419 31.8639 115.699 31.9846C115.863 32.0564 115.979 32.1319 116.066 32.3007C116.342 32.8396 116.681 33.0196 117.292 32.9021C117.761 32.8111 118.21 32.6322 118.703 32.7241C118.812 32.7446 118.952 32.7027 119.051 32.6445C119.552 32.3487 120.126 32.1186 120.525 31.7188C121.237 31.006 121.886 30.2187 122.477 29.4005C122.829 28.9116 123.09 28.3348 122.925 27.6639C122.769 27.027 122.418 26.4992 122.018 26.0154ZM118.253 27.756C118.508 28.2806 118.491 28.2889 118.44 28.8052C118.122 28.836 117.788 28.8678 117.491 28.8943C117.243 28.5118 117.024 28.1692 116.801 27.8297C116.612 27.5453 116.377 27.3223 116.007 27.3398C115.736 27.3521 115.642 27.1925 115.598 26.9718C115.551 26.7374 115.512 26.5002 115.464 26.266C115.327 25.6082 115.482 25.0325 115.988 24.5867C116.483 24.1509 116.681 23.6508 116.569 22.9881C116.48 22.4645 116.853 22.1525 117.3 21.9347C117.223 22.264 117.138 22.5923 117.074 22.9236C116.94 23.5966 117.222 24.0894 117.768 24.4598C117.896 24.5466 118.037 24.6132 118.165 24.7012C118.493 24.9261 118.559 25.1164 118.434 25.4937C118.376 25.6718 118.291 25.8424 118.219 26.0174C117.979 26.6016 117.969 27.1752 118.253 27.756Z" fill="#11B0C8"/>
<path d="M27.3547 23.1755C27.3351 22.5312 27.4462 21.9157 27.6755 21.3152C27.8452 20.8714 27.9335 20.4019 27.7176 19.9633C27.4778 19.4764 27.4225 18.9898 27.5182 18.4702V18.2647C27.4914 17.8709 27.3043 17.6787 26.9064 17.6418C26.5517 17.6112 26.2256 17.6908 25.9254 17.8903C25.8205 17.9609 25.6819 18.0274 25.5625 18.0202C24.9364 17.9823 24.7029 18.1551 24.7821 18.7554C24.8664 19.4058 24.7882 20.0154 24.5599 20.6186C24.5239 20.7138 24.5146 20.8181 24.4931 20.9193C24.4149 21.2885 24.4662 21.6035 24.856 21.7786C25.1039 21.8899 25.1613 22.1088 25.1193 22.3369C25.0792 22.5518 24.9897 22.7593 24.9074 22.9639C24.7676 23.3137 24.5948 23.6511 24.4746 24.0059C24.2782 24.59 24.3389 25.1259 24.8674 25.5308C25.0741 25.6893 25.1809 25.8968 25.1696 26.1525C25.147 26.664 25.1459 27.1785 25.075 27.6836C25.0278 28.0292 24.9629 28.3657 25.1172 28.69C25.258 28.9845 25.2807 29.2843 25.2088 29.591C25.1213 29.9674 25.2005 30.3048 25.4103 30.6168C25.6005 30.8982 25.6694 31.2079 25.6601 31.5434C25.654 31.8513 25.6592 32.1602 25.6592 32.4689H25.6448C25.6448 32.8288 25.6335 33.1898 25.648 33.5499C25.6654 33.9856 25.7631 34.4028 26.0797 34.729C26.4303 35.089 26.8489 35.0469 27.1174 34.6278C27.1882 34.5133 27.2542 34.3793 27.2684 34.2483C27.3147 33.8424 27.3846 33.4292 27.3548 33.0253C27.2858 32.0475 27.3846 31.111 27.8596 30.2332C27.9408 30.0862 27.9655 29.9091 28.0262 29.7484C28.2843 29.0797 28.2041 28.4385 27.8699 27.8177L27.8217 27.7265C27.6531 27.3932 27.6592 27.0741 27.8648 26.751C28.0303 26.4912 28.1548 26.2038 28.3286 25.9491C28.7225 25.3775 28.6668 24.637 27.8997 24.1902C27.4739 23.9425 27.367 23.6091 27.3547 23.1755Z" fill="#11B0C8"/>
<path d="M25.3702 15.7876C25.7733 16.1148 26.2431 16.2336 26.7253 16.0596C27.2229 15.8806 27.4626 15.4654 27.5016 14.9429C27.554 14.2414 27.6547 13.5542 27.8243 12.8679C28.0063 12.1296 27.5539 11.6723 26.7251 11.7869C26.7694 11.5394 26.8145 11.3432 26.8373 11.1437C26.9094 10.5526 26.4712 10.0025 25.951 10.0618C25.5541 10.1068 25.1849 10.2521 24.9031 10.5629C24.5884 10.9107 24.4784 11.4536 24.7367 11.8444C24.968 12.1902 24.9002 12.4671 24.7243 12.7914C24.5443 13.1218 24.3737 13.4644 24.2637 13.8203C24.1165 14.3042 24.1782 14.7765 24.5835 15.1387C24.8376 15.3642 25.1069 15.5737 25.3702 15.7876Z" fill="#11B0C8"/>
<path d="M142.844 43.0155V43.1139H142.559V43.8523H142.444V43.1139H142.159V43.0155" fill="#11B0C8"/>
<path d="M142.922 43.0155H143.084L143.328 43.7224L143.57 43.0155H143.731V43.8523H143.624V43.3625L143.625 43.2725V43.1465L143.384 43.8523H143.271L143.024 43.1465V43.1712L143.03 43.2653V43.8523H142.922" fill="#11B0C8"/>
</svg>
