<svg width="72" height="72" viewBox="0 0 72 72" fill="none" xmlns="http://www.w3.org/2000/svg">
<path d="M58.5 11.25H13.5C11.7098 11.25 9.9929 11.9612 8.72703 13.227C7.46116 14.4929 6.75 16.2098 6.75 18V49.5C6.75 51.2902 7.46116 53.0071 8.72703 54.273C9.9929 55.5388 11.7098 56.25 13.5 56.25H58.5C60.2902 56.25 62.0071 55.5388 63.273 54.273C64.5388 53.0071 65.25 51.2902 65.25 49.5V18C65.25 16.2098 64.5388 14.4929 63.273 13.227C62.0071 11.9612 60.2902 11.25 58.5 11.25ZM60.75 49.5C60.75 50.0967 60.5129 50.669 60.091 51.091C59.669 51.5129 59.0967 51.75 58.5 51.75H13.5C12.9033 51.75 12.331 51.5129 11.909 51.091C11.4871 50.669 11.25 50.0967 11.25 49.5V18C11.25 17.4033 11.4871 16.831 11.909 16.409C12.331 15.9871 12.9033 15.75 13.5 15.75H58.5C59.0967 15.75 59.669 15.9871 60.091 16.409C60.5129 16.831 60.75 17.4033 60.75 18V49.5ZM47.25 63C47.25 63.5967 47.0129 64.169 46.591 64.591C46.169 65.0129 45.5967 65.25 45 65.25H27C26.4033 65.25 25.831 65.0129 25.409 64.591C24.9871 64.169 24.75 63.5967 24.75 63C24.75 62.4033 24.9871 61.831 25.409 61.409C25.831 60.9871 26.4033 60.75 27 60.75H45C45.5967 60.75 46.169 60.9871 46.591 61.409C47.0129 61.831 47.25 62.4033 47.25 63ZM46.2487 31.8769L32.7488 22.8769C32.4098 22.6507 32.0158 22.5209 31.6089 22.5012C31.2019 22.4815 30.7972 22.5726 30.438 22.7649C30.0788 22.9572 29.7786 23.2435 29.5693 23.5931C29.3601 23.9427 29.2497 24.3426 29.25 24.75V42.75C29.2497 43.1574 29.3601 43.5573 29.5693 43.9069C29.7786 44.2565 30.0788 44.5428 30.438 44.7351C30.7972 44.9274 31.2019 45.0185 31.6089 44.9988C32.0158 44.9791 32.4098 44.8493 32.7488 44.6231L46.2487 35.6231C46.5574 35.4177 46.8105 35.1393 46.9855 34.8125C47.1606 34.4857 47.2522 34.1207 47.2522 33.75C47.2522 33.3793 47.1606 33.0143 46.9855 32.6875C46.8105 32.3607 46.5574 32.0823 46.2487 31.8769ZM33.75 38.5453V28.9688L40.9444 33.75L33.75 38.5453Z" fill="white"/>
</svg>
